<svg width="22" height="22" viewBox="0 0 22 22" fill="none" xmlns="http://www.w3.org/2000/svg">
<path d="M0.672852 10.6865C0.672852 10.2552 0.827474 9.88493 1.13672 9.57568C1.44596 9.26644 1.81624 9.11182 2.24756 9.11182H9.4375V1.93408C9.4375 1.50277 9.58805 1.13249 9.88916 0.823242C10.1903 0.513997 10.5605 0.359375 11 0.359375C11.4313 0.359375 11.8016 0.513997 12.1108 0.823242C12.4201 1.13249 12.5747 1.50277 12.5747 1.93408V9.11182H19.7646C20.1878 9.11182 20.554 9.26644 20.8633 9.57568C21.1725 9.88493 21.3271 10.2552 21.3271 10.6865C21.3271 11.126 21.1725 11.5003 20.8633 11.8096C20.554 12.1107 20.1878 12.2612 19.7646 12.2612H12.5747V19.4512C12.5747 19.8743 12.4201 20.2406 12.1108 20.5498C11.8016 20.859 11.4313 21.0137 11 21.0137C10.5605 21.0137 10.1903 20.859 9.88916 20.5498C9.58805 20.2406 9.4375 19.8743 9.4375 19.4512V12.2612H2.24756C1.81624 12.2612 1.44596 12.1107 1.13672 11.8096C0.827474 11.5003 0.672852 11.126 0.672852 10.6865Z" fill="#4E4E4E"/>
</svg>
